<svg id="Capa_1" data-name="Capa 1" xmlns="http://www.w3.org/2000/svg" viewBox="0 0 328.13 118.93"><defs><style>.cls-1{fill:#605c5c;}.cls-2{fill:#4cb25a;}.cls-3{fill:none;}.cls-4{fill:#fe5e08;}</style></defs><path class="cls-1" d="M226.67,212.67c-2.95-.65-5.91-1.3-8.87-1.93-2.1-.45-3.48.12-3.69,2.52-.18,1.93-1,2-2.28.69a11.55,11.55,0,0,0-7.47-3.24c-9.36-.72-16.5,3.17-20.12,10.48-3.5,5-4.23,11.12-2,17.54,1.48,7.27,5.51,12.43,11.39,14.88a.58.58,0,0,0,.44.2,23.45,23.45,0,0,0,10.28,1.34,11.5,11.5,0,0,0,7.47-3.24,5,5,0,0,1,.67-.56,2.71,2.71,0,0,1,.06.62c0,3.07,1.73,3.48,4.18,3.24,1.07-.11,2.15,0,3.22,0,9.09-.41,8,1,7.62-8-.51-10.71-1.33-21.39.73-32A1.86,1.86,0,0,0,226.67,212.67Zm-22.12,28.7c-4.67,0-8.09-3.54-8.18-8.44a9.68,9.68,0,0,1,.58-3.2,9.06,9.06,0,0,1,4.39-3.65,8.51,8.51,0,0,1,11,4,9.74,9.74,0,0,1,.45,2.82C212.73,237.94,209.42,241.35,204.55,241.37Z" transform="translate(-85.87 -189.96)"/><path class="cls-2" d="M287.44,216.14c2.58-.17,5.19-.15,7.75-.51,1.8-.26,2.51.25,2.5,2,0,3.57.11,7.15,0,10.73-.18,7-.44,13.92-.72,20.89-.08,2,.51,3.26,2.83,3.2,1.69-.05,3.39.13,4.9.2,2-.09,3.76-.27,5.55-.24s2.42-.72,2.33-2.4c-.13-2.5-.14-5-.29-7.49q-.74-11.78-.55-23.58c.05-3.63.13-3.65,3.62-3.27,1.95.22,3.93.21,5.88.4s2.39-.72,2.16-2.38a19.39,19.39,0,0,1-.16-6.92c.28-1.33-.39-2-1.79-2-.89,0-1.79,0-2.68.07a144.11,144.11,0,0,1-29.44,0c-1.62-.19-2.28.31-2.47,1.9-.3,2.47-.63,4.94-1.17,7.37C285.33,215.83,285.94,216.24,287.44,216.14Z" transform="translate(-85.87 -189.96)"/><path class="cls-2" d="M377.66,239.58h0c-5-1.51-7.37-5.13-7.82-10-.46-5.07,1.35-9.33,6.11-11.52,5.47-2.51,10.51-.91,14.91,2.79,1.63,1.37,2.6,1.16,3.6-.55s2.2-3.48,3.19-5.28c1.68-3,1.54-4-1.28-6.06-7.65-5.65-16.3-6.62-24.94-3.61-17.18,6-19.53,26.35-11.47,37.79,1.51,2.15,3.15,4.35,5.89,5.2h0C369.47,245,373.7,242.46,377.66,239.58Z" transform="translate(-85.87 -189.96)"/><path class="cls-1" d="M247,259c0-1.35-1-2-1.89-2.74a2.9,2.9,0,0,1-1-3.6c.72-1.43,2-.28,2.84,0a9.3,9.3,0,0,0,5.5.16c5.93-1.73,10.26-8.71,9.62-15.93-.42-4.69-1.86-9-6.21-11.58-3.14-1.84-6.28-1.12-9.35.61-.84.48-2.36,2.72-2.89-.46-.17-1.05-1.2-1.16-2.15-1.13A29.18,29.18,0,0,0,230,227.36c-2.39,1.12-2.33,3.51.09,4.64a3.08,3.08,0,0,1,1.93,3.12c.23,5,.19,10-.05,15-.09,1.92-.47,3.6-2.32,4.8-1.67,1.09-1.49,2.65-.28,4.16,1.07,1.31,2.65,1.76,4,2.57l.11.08C239.75,260.27,242.09,259.46,247,259Zm-3.52-16.24c.1-2.49.2-5,.37-7.45.09-1.22.11-2.63,1.74-2.91a2.86,2.86,0,0,1,3.15,1.94,9.89,9.89,0,0,1,1,4.84,10.87,10.87,0,0,1-.89,5,2.92,2.92,0,0,1-3.54,1.67C243.56,245.51,243.45,244.15,243.5,242.76Z" transform="translate(-85.87 -189.96)"/><path class="cls-2" d="M330.41,212.33c1.41.23,2.81.51,4.22.72s1.86.67,1.55,2.15c-1,4.81-2,9.63-2.77,14.48-.87,5.56-2.38,11-2.62,15.55,0,6,1.64,8.93,5.11,9.29,5.87.62,11.3-1.23,16.58-3.48,1.6-.69,1.24-2.35.88-3.57-.43-1.41-1.5-.24-2.25-.14-1.05.14-2.08.53-3.13.7a4.45,4.45,0,0,1-5.4-3.6,10.36,10.36,0,0,1,0-4.26q2.76-16.12,5.52-32.24c.56-3.22.58-3.42-2.47-3.1-5.32.57-10.43,2.26-15.65,3.39-1.16.24-1.19,1.37-1.23,2.41C328.74,211.83,329.42,212.17,330.41,212.33Z" transform="translate(-85.87 -189.96)"/><path class="cls-1" d="M277.75,253.12a10.42,10.42,0,0,0,5-.85,11.19,11.19,0,0,0,6.15-4.51,2.83,2.83,0,0,0-.48-3.67c-1.1-1.22-1.89-.16-2.8.28a20.56,20.56,0,0,1-2.67,1.2,6.08,6.08,0,0,1-7.4-3.15c-1-2.2-.64-2.89,1.79-2.92,3.14,0,6.27-.12,9.4,0,2.48.1,3.37-1.22,3.59-3.36a9.29,9.29,0,0,0-1-5.19c-2.93-5.8-9.27-8.14-16-5.9-5.9,1.95-10.25,9.29-9.27,15.66C265.17,248.28,270.43,253.11,277.75,253.12Zm0-24.06c2.17-.09,2.88,1.63,3,3.37.2,2.14-1.35,2.39-2.55,2.28-1.87-.07-3.66.27-3.53-1.92C274.84,231,275.54,229.15,277.77,229.06Z" transform="translate(-85.87 -189.96)"/><path class="cls-2" d="M374,244.07a44.18,44.18,0,0,0-6.63,5.63A31.41,31.41,0,0,0,384,252.87a20.93,20.93,0,0,0,13.46-6.37c1.44-1.46,2-2.83.48-4.64a54.83,54.83,0,0,1-3.54-5c-1-1.59-2.06-2-3.62-.54a16.14,16.14,0,0,1-8.49,3.65s-2.89.37-2.41.18A65,65,0,0,0,374,244.07Z" transform="translate(-85.87 -189.96)"/><path class="cls-3" d="M224.25,270.23c1.7.76,3.2,2,5.12,2.23h0c12.61,6,25.64,10.46,39.81,10.41,8,0,15.87-.77,23.15-4.5,5.65-3,6-6.92.74-10.47a30.26,30.26,0,0,0-11.68-5.15,116.59,116.59,0,0,0-36-1,104.57,104.57,0,0,0-21,5.4c-.72.25-1.75.37-1.86,1.31C222.42,269.55,223.46,269.88,224.25,270.23Z" transform="translate(-85.87 -189.96)"/><path class="cls-4" d="M173.73,280.73a87.86,87.86,0,0,1-11.4,1.72,92.2,92.2,0,0,0-29.59,8.25c-4.63,2.08-9,4.94-14.05,5.9-5.48,2-11,1-16.33-.29s-10.73-2.83-15.08-6.59c-.49-.43-1.26-1-1.41.35l3.8,3.85c10.58,10.09,23.54,10.41,36.88,8.77,3.87-.48,7.67-1.6,11.51-2.42h0c4.2-1.26,8.44-2.39,12.59-3.8,6.34-2.16,12.85-4,18.7-7.36a19.42,19.42,0,0,0,6.29-5.36,2.58,2.58,0,0,0,.52-2.76C175.57,279.94,174.54,280.55,173.73,280.73Z" transform="translate(-85.87 -189.96)"/><path class="cls-3" d="M293.07,267.9a30.26,30.26,0,0,0-11.68-5.15,116.59,116.59,0,0,0-36-1,104.57,104.57,0,0,0-21,5.4c-.72.25-1.75.37-1.86,1.31-.14,1.11.9,1.44,1.69,1.79,1.7.76,3.2,2,5.12,2.23h0c12.61,6,25.64,10.46,39.81,10.41,8,0,15.87-.77,23.15-4.5C298,275.36,298.29,271.45,293.07,267.9Z" transform="translate(-85.87 -189.96)"/><path class="cls-4" d="M413.93,208.69c-1.26-5.69-2.5-7.86-18.18-11.71-10.25-2.51-42-3.85-46.08-4a6.34,6.34,0,1,0,1,3.37,5.68,5.68,0,0,0-.11-1.09c6.58.28,35.34,1.63,44.67,3.92,15.13,3.71,15.51,5.43,16.54,10,.86,3.87-16.06,19.9-24.95,24.65-16.49,8.8-24.34,15.61-24.73,21.44-.18,2.76,1.27,5.21,4.45,7.48,11.43,8.19,16,15,13.49,20.24l-.13.28c-12.47,28.18-127.46,23-128.62,22.92-34.42-1.37-45.36-8.39-48.47-14-1.79-3.25-1.53-6.92.78-10.91l.16-.29c2.55-4.8,8.42-8.61,14.31-11.4l30.32,12.82c1.84.48,45.15,11.49,51.25-8.63a5.47,5.47,0,0,0-.67-4.49c-2.44-4.06-9.8-7.58-20.2-9.65-.23-.05-23.27-4.56-45.52,2.15A90.83,90.83,0,0,0,218,267.06c-15.13-8.9-21.18-25.86-21.27-26.12-7.58-17.1-27-12.55-27.18-12.5-2.6.66-4.1,1.91-4.46,3.72-1,5.05,8.29,12.19,9.41,13,12.53,8.26,14.44,10.39,12.78,14.25-1.45,3.4-9.12,5.95-14,7.16.15-.12.21-.18.09-.16h0c-4,.58-7.47-1.05-10.9-2.84-1.46-.77-3-1.93-4.76-1-4.14,2.21-8,.38-11.9-.74-.72-.2-1.89-.88-1-1.95,2.21-2.55-.09-2.76-1.64-3.17-5.86-1.54-11.73-.68-17.54.35a97.19,97.19,0,0,0-34.38,13.66h0c-.8.83-1.58,1.66-2.39,2.48-3.92,4-4.09,7.91-.66,12.38,5.29,6.87,12.78,8.22,20.76,8.38,1.06,0,2.13-.1,3.19-.15h0a136.52,136.52,0,0,0,16-6c7.37-3.42,14.79-6.75,22.89-8,6.25-1,12.55-1.73,18.8-2.72,4.05-.64,4.21-1,2.72-4.83a2.47,2.47,0,0,1,1.11-3.45c4.6-1.11,13.63-3.84,15.62-8.47,2.48-5.79-1.29-8.89-13.55-17-3.58-2.69-9.06-8-8.51-10.76.18-.89,1.13-1.56,2.81-2,.72-.17,17.77-4.14,24.56,11.15.24.71,6,16.93,21,26.45-5.73,2.89-11.28,6.78-13.89,11.69l-.12.22c-3.4,5.87-2.31,10.37-.8,13.11,4.93,8.95,21.87,14.06,50.33,15.19,1.28.07,10.31.48,23.1.48,35,0,98.09-3.07,107.67-24.73l.1-.22c1.13-2.37,4.55-9.58-14.21-23-2.52-1.81-3.64-3.56-3.51-5.52.32-4.84,8.24-11.44,23.55-19.61C395.67,231.63,415.28,214.75,413.93,208.69ZM233.8,263.91c21.77-6.55,44.28-2.16,44.5-2.12,9.64,1.92,16.64,5.14,18.72,8.61a3.27,3.27,0,0,1,.45,2.7c-5.48,18.07-48.12,7.21-48.4,7.15L220.82,268.3A94.18,94.18,0,0,1,233.8,263.91Z" transform="translate(-85.87 -189.96)"/></svg>